<svg width="679" height="679" viewBox="0 0 679 679" fill="none" xmlns="http://www.w3.org/2000/svg">
<path d="M364.499 573.174C378.721 575.445 393.295 573.658 406.548 568.016C419.801 562.375 431.196 553.108 439.423 541.28C456.395 520.57 450.186 493.646 461.363 470.864C470.822 451.117 487.162 435.504 507.312 426.958C528.423 417.017 552.018 424.058 572.302 412.046C582.95 406.522 592.271 398.75 599.621 389.265C606.378 380.469 611.027 370.239 613.21 359.363C615.393 348.486 615.051 337.252 612.212 326.528C609.373 315.804 604.111 305.876 596.833 297.507C589.555 289.138 580.454 282.553 570.231 278.258C561.305 273.819 551.607 271.146 541.669 270.388C520.13 268.703 500.023 258.938 485.372 243.05C469.802 227.49 460.642 206.645 459.708 184.646C459.774 169.911 455.449 155.491 447.289 143.225C440.202 131.104 429.654 121.379 417.002 115.302C404.349 109.224 390.169 107.071 376.284 109.12C362.399 111.168 349.444 117.324 339.082 126.797C328.72 136.27 321.426 148.627 318.137 162.279C316.507 172.907 317.105 183.757 319.894 194.141C322.684 204.524 327.605 214.213 334.341 222.59C341.077 230.967 349.482 237.85 359.021 242.798C368.561 247.747 379.027 250.654 389.75 251.334C413.464 251.884 435.988 261.836 452.368 279.004C468.748 296.171 477.642 319.145 477.093 342.874C476.544 366.603 466.597 389.141 449.441 405.531C432.285 421.921 409.324 430.821 385.611 430.271C370.879 430.566 356.531 435.017 344.216 443.112C331.819 450.184 321.864 460.861 315.671 473.725C309.478 486.589 307.34 501.032 309.54 515.141C311.741 529.249 318.175 542.354 327.99 552.719C337.806 563.083 350.538 570.217 364.499 573.174Z" fill="#EA5B0E"/>
<path d="M121.519 571.104C135.795 573.261 150.389 571.422 163.686 565.793C176.983 560.164 188.464 550.963 196.858 539.209C213.83 518.498 207.207 491.576 218.797 468.794C228.257 449.047 244.595 433.433 264.745 424.887C285.442 414.946 309.037 421.988 329.321 409.976C340.079 404.62 349.436 396.818 356.641 387.195C363.596 378.468 368.442 368.251 370.803 357.342C373.163 346.432 372.974 335.125 370.249 324.3C367.525 313.476 362.339 303.428 355.096 294.939C347.853 286.449 338.749 279.748 328.493 275.358C319.546 270.976 309.859 268.307 299.931 267.488C278.104 265.436 257.739 255.609 242.544 239.797C227.349 223.984 218.335 203.237 217.141 181.333C217.06 166.559 212.593 152.142 204.309 139.912C197.3 127.745 186.797 117.968 174.162 111.853C161.528 105.738 147.347 103.567 133.463 105.621C119.58 107.676 106.634 113.862 96.3095 123.376C85.9853 132.889 78.7602 145.29 75.5717 158.966C73.9412 169.594 74.5392 180.445 77.3289 190.828C80.1185 201.211 85.0381 210.9 91.7744 219.277C98.5107 227.654 106.916 234.536 116.456 239.484C125.996 244.433 136.46 247.34 147.184 248.021C170.898 248.57 193.423 258.523 209.803 275.69C226.183 292.857 235.076 315.832 234.528 339.56C233.979 363.289 224.031 385.828 206.875 402.218C189.718 418.609 166.758 427.508 143.044 426.959C128.351 427.485 114.063 431.917 101.649 439.799C88.8011 446.65 78.3933 457.32 71.8589 470.338C65.3246 483.355 62.9853 498.08 65.1649 512.484C67.3445 526.887 73.935 540.26 84.028 550.758C94.121 561.257 107.22 568.366 121.519 571.104Z" fill="#EA5B0E"/>
</svg>
